<svg xmlns="http://www.w3.org/2000/svg" xmlns:xlink="http://www.w3.org/1999/xlink" fill="none" version="1.1" width="64" height="64" viewBox="0 0 64 64"><g style="mix-blend-mode:passthrough"><g style="mix-blend-mode:passthrough"><path d="M36.932383300781254,0L36.932383300781254,13.855L57.14288330078125,47.7102L53.30288330078125,54.1162L33.14288330078125,20.4844L23.54288330078125,36.4996L19.702883300781252,30.0935L29.35338330078125,13.855L29.35338330078125,0L36.932383300781254,0ZM57.14288330078125,28.492L52.34288330078125,36.4995L48.50288330078125,30.0935L49.56388330078125,28.4921L57.14288330078125,28.492ZM9.14290401678125,28.4921L30.42758330078125,64L33.14288330078125,64L35.858083300781246,64L46.58288330078125,46.1086L42.74288330078125,39.7026L33.14278330078125,55.7177L16.72183330078125,28.4921L9.14290401678125,28.4921ZM13.94288330078125,39.7026L17.78286330078125,46.1086L12.98288330078125,54.1162L9.14288330078125,47.7102L13.94288330078125,39.7026Z" fill-rule="evenodd" fill="#3D3D3D" fill-opacity="1"/></g></g></svg>
